<svg width="48" height="47" viewBox="0 0 48 47" fill="none" xmlns="http://www.w3.org/2000/svg">
<path d="M41.25 5.14062H6.75C5.92031 5.14062 5.25 5.79697 5.25 6.60938V40.3906C5.25 41.203 5.92031 41.8594 6.75 41.8594H41.25C42.0797 41.8594 42.75 41.203 42.75 40.3906V6.60938C42.75 5.79697 42.0797 5.14062 41.25 5.14062ZM36.9187 15.8579H33.9234C31.575 15.8579 31.1203 16.9503 31.1203 18.5567V22.0955H36.7266L35.9953 27.6354H31.1203V41.8594H25.275V27.64H20.3859V22.0955H25.275V18.0105C25.275 13.2692 28.2328 10.6852 32.5547 10.6852C34.6266 10.6852 36.4031 10.8366 36.9234 10.9055V15.8579H36.9187Z" fill="black"/>
</svg>
