<svg width="47" height="47" viewBox="0 0 47 47" fill="none" xmlns="http://www.w3.org/2000/svg">
<path d="M40.3906 5.14062H6.60938C5.79697 5.14062 5.14062 5.79697 5.14062 6.60938V40.3906C5.14062 41.203 5.79697 41.8594 6.60938 41.8594H40.3906C41.203 41.8594 41.8594 41.203 41.8594 40.3906V6.60938C41.8594 5.79697 41.203 5.14062 40.3906 5.14062ZM16.0323 36.4296H10.5842V18.9056H16.0323V36.4296ZM13.3105 16.5097C12.686 16.5097 12.0755 16.3245 11.5562 15.9775C11.0369 15.6305 10.6321 15.1373 10.3931 14.5603C10.1541 13.9833 10.0916 13.3484 10.2134 12.7358C10.3353 12.1232 10.636 11.5606 11.0776 11.1189C11.5193 10.6773 12.0819 10.3766 12.6945 10.2547C13.307 10.1329 13.942 10.1954 14.519 10.4344C15.096 10.6734 15.5892 11.0782 15.9362 11.5975C16.2832 12.1168 16.4684 12.7273 16.4684 13.3519C16.4638 15.096 15.0501 16.5097 13.3105 16.5097ZM36.4296 36.4296H30.986V27.9062C30.986 25.8729 30.9493 23.2613 28.1541 23.2613C25.3222 23.2613 24.8861 25.4736 24.8861 27.7594V36.4296H19.4472V18.9056H24.6704V21.3015H24.7438C25.469 19.9245 27.2453 18.4695 29.8982 18.4695C35.4152 18.4695 36.4296 22.1001 36.4296 26.8185V36.4296Z" fill="black"/>
</svg>
