<svg width="33" height="33" viewBox="0 0 33 33" fill="none" xmlns="http://www.w3.org/2000/svg">
<path d="M29.7767 11.3837C29.7619 10.2733 29.5537 9.17397 29.1614 8.13482C28.8212 7.25831 28.3016 6.46227 27.6358 5.79758C26.97 5.13289 26.1726 4.61416 25.2946 4.27453C24.2671 3.88947 23.1816 3.68125 22.0844 3.65876C20.6716 3.59572 20.2237 3.57812 16.6375 3.57812C13.0512 3.57812 12.5916 3.57813 11.1891 3.65876C10.0923 3.68142 9.00734 3.88963 7.9803 4.27453C7.10219 4.61392 6.30471 5.13257 5.63888 5.79729C4.97305 6.46201 4.45354 7.25817 4.11358 8.13482C3.7271 9.15983 3.519 10.2433 3.49826 11.3383C3.43511 12.7502 3.41602 13.1973 3.41602 16.7776C3.41602 20.3579 3.41602 20.8153 3.49826 22.2169C3.52028 23.3135 3.72735 24.3955 4.11358 25.4233C4.45411 26.2997 4.97401 27.0955 5.64006 27.76C6.30611 28.4244 7.10367 28.9428 7.98177 29.2821C9.00599 29.6827 10.0912 29.9058 11.1906 29.9419C12.6048 30.0049 13.0527 30.024 16.6389 30.024C20.2252 30.024 20.6848 30.024 22.0873 29.9419C23.1845 29.9203 24.2701 29.7126 25.2976 29.3276C26.1753 28.9875 26.9725 28.4687 27.6382 27.804C28.304 27.1394 28.8237 26.3436 29.1643 25.4673C29.5505 24.441 29.7576 23.359 29.7796 22.2609C29.8428 20.8505 29.8619 20.4033 29.8619 16.8216C29.8589 13.2413 29.8589 12.7868 29.7767 11.3837ZM16.6287 23.5481C12.878 23.5481 9.8395 20.5147 9.8395 16.7703C9.8395 13.0258 12.878 9.99239 16.6287 9.99239C18.4293 9.99239 20.1561 10.7065 21.4293 11.9776C22.7025 13.2487 23.4178 14.9727 23.4178 16.7703C23.4178 18.5679 22.7025 20.2918 21.4293 21.5629C20.1561 22.834 18.4293 23.5481 16.6287 23.5481ZM23.688 11.3222C23.4801 11.3224 23.2741 11.2816 23.082 11.2022C22.8898 11.1229 22.7152 11.0065 22.5682 10.8597C22.4211 10.7129 22.3045 10.5386 22.225 10.3467C22.1455 10.1549 22.1047 9.94929 22.1049 9.74169C22.1049 9.53423 22.1458 9.32881 22.2254 9.13715C22.3049 8.94548 22.4215 8.77133 22.5684 8.62464C22.7153 8.47795 22.8898 8.36158 23.0817 8.2822C23.2737 8.20281 23.4795 8.16194 23.6873 8.16194C23.8951 8.16194 24.1009 8.20281 24.2928 8.2822C24.4848 8.36158 24.6593 8.47795 24.8062 8.62464C24.9531 8.77133 25.0697 8.94548 25.1492 9.13715C25.2287 9.32881 25.2697 9.53423 25.2697 9.74169C25.2697 10.6155 24.5618 11.3222 23.688 11.3222Z" fill="white"/>
<path d="M16.631 20.7444C18.824 20.7444 20.6018 18.9666 20.6018 16.7736C20.6018 14.5805 18.824 12.8027 16.631 12.8027C14.438 12.8027 12.6602 14.5805 12.6602 16.7736C12.6602 18.9666 14.438 20.7444 16.631 20.7444Z" fill="white"/>
</svg>
