<svg width="66" height="65" viewBox="0 0 66 65" fill="none" xmlns="http://www.w3.org/2000/svg">
<g clip-path="url(#clip0_335_540)">
<path d="M55.5683 33.1326C55.2526 32.3517 54.8206 31.5874 54.2308 31.0391C53.4831 31.3631 52.6274 31.5043 51.7135 31.5043C51.1486 31.5043 50.6252 31.3797 50.1351 31.1637C48.9221 31.9861 47.5846 33.4566 47.7341 35.9157H56.2246C56.1415 34.9603 55.9339 34.0215 55.5683 33.1326Z" stroke="white" stroke-width="2.5" stroke-miterlimit="10"/>
<path d="M56.2652 35.916H56.2246" stroke="white" stroke-width="2.5" stroke-miterlimit="10"/>
<path d="M64.266 12.3457V45.8258C64.266 47.4541 62.945 48.775 61.3084 48.775H55.277L56.2241 37.8587C56.2822 37.2107 56.2822 36.5627 56.2241 35.9147C56.141 34.9593 55.9333 34.0205 55.5678 33.1316C55.2521 32.3507 54.8201 31.5864 54.2303 31.038C55.8253 30.3734 56.9386 28.9279 57.1213 26.4107C57.3041 23.8851 54.7204 20.6285 53.0589 18.8174C52.361 18.0614 51.1481 18.103 50.5084 18.9171C49.0712 20.7448 46.853 23.8519 46.8281 25.6547C46.8032 27.798 48.1241 30.2737 50.1345 31.1627C48.9216 31.9851 47.5841 33.4556 47.7336 35.9147C47.8416 37.5845 48.2819 43.1673 48.7472 48.775H4.12649C2.48987 48.775 1.16895 47.4541 1.16895 45.8258V12.3457C1.16895 10.7174 2.48987 9.39648 4.12649 9.39648H22.2456V13.434C22.2456 14.5639 23.1677 15.486 24.2976 15.486H41.3201C42.4499 15.486 43.3638 14.5639 43.3638 13.434V9.39648H61.3084C62.945 9.39648 64.266 10.7174 64.266 12.3457Z" stroke="white" stroke-width="2.5" stroke-miterlimit="10"/>
<path d="M43.3653 8.07544V13.4339C43.3653 14.5638 42.4514 15.4859 41.3216 15.4859H24.2991C23.1692 15.4859 22.2471 14.5638 22.2471 13.4339V8.07544C22.2471 6.93728 23.1692 6.02344 24.2991 6.02344H41.3216C42.4514 6.02344 43.3653 6.93728 43.3653 8.07544Z" stroke="white" stroke-width="2.5" stroke-miterlimit="10"/>
<path d="M37.7991 4.13822V6.02407H28.0791V4.13822C28.0791 2.81729 29.1508 1.75391 30.4717 1.75391H35.4065C36.7274 1.75391 37.7991 2.81729 37.7991 4.13822Z" stroke="white" stroke-width="2.5" stroke-miterlimit="10"/>
<path d="M49.2471 54.9979H12.9175C10.9735 54.9979 9.40332 53.4194 9.40332 51.4754V48.7754H48.7486C48.9148 50.9188 49.0892 53.0705 49.2471 54.9979Z" stroke="white" stroke-width="2.5" stroke-miterlimit="10"/>
<path d="M18.3581 13.8672H9.0036C7.58299 13.8672 6.43652 15.0137 6.43652 16.4343V41.7478C6.43652 43.1685 7.58299 44.3149 9.0036 44.3149H40.5147" stroke="white" stroke-width="2.5" stroke-miterlimit="10"/>
<path d="M47.1279 13.8672H57.0889C58.2436 13.8672 59.1824 14.806 59.1824 15.9607V20.6712" stroke="white" stroke-width="2.5" stroke-miterlimit="10"/>
<path d="M30.5372 22.5325V28.6885C28.319 29.0789 26.5495 30.7986 26.0926 32.9919L22.2793 25.2823L17.3363 34.4291C16.4141 34.0137 15.7744 33.0916 15.7744 32.0199V22.5325C15.7744 21.0703 16.9541 19.8906 18.408 19.8906H27.9037C29.3575 19.8906 30.5372 21.0703 30.5372 22.5325Z" stroke="white" stroke-width="2.5" stroke-miterlimit="10"/>
<path d="M37.0009 34.1135C37.0009 37.1541 34.5335 39.6215 31.4929 39.6215C30.6372 39.6215 29.8313 39.4221 29.1086 39.0815C27.4221 38.259 26.2092 36.6058 26.0181 34.6618C26.0015 34.479 25.9932 34.2962 25.9932 34.1135C25.9932 33.7313 26.0347 33.3658 26.1012 33.0002C26.5581 30.7987 28.3276 29.079 30.5458 28.6885C30.8532 28.6304 31.1772 28.6055 31.5012 28.6055C34.5418 28.6055 37.0092 31.0729 37.0092 34.1135H37.0009Z" stroke="white" stroke-width="2.5" stroke-miterlimit="10"/>
<path d="M57.1227 26.4107C56.9399 28.928 55.8267 30.3735 54.2316 31.0381C53.4839 31.3621 52.6282 31.5034 51.7144 31.5034C51.1495 31.5034 50.6261 31.3787 50.1359 31.1627C48.1254 30.2738 46.8045 27.7981 46.8294 25.6547C46.8544 23.852 49.0725 20.7449 50.5098 18.9172C51.1495 18.103 52.3624 18.0615 53.0602 18.8175C54.7218 20.6286 57.3055 23.8852 57.1227 26.4107Z" stroke="white" stroke-width="2.5" stroke-miterlimit="10"/>
<path d="M56.2239 37.8581L55.2768 48.7744L54.1802 61.4021C54.0805 62.5319 53.15 63.479 52.0202 63.4292C51.9288 63.4292 51.8374 63.4126 51.746 63.4043C50.6411 63.2215 49.8519 62.2495 49.7522 61.1363C49.6442 59.8402 49.4614 57.6138 49.2454 54.9969C49.0876 53.0695 48.9131 50.9178 48.7469 48.7744C48.2817 43.1667 47.8414 37.5839 47.7334 35.9141H56.2239C56.282 36.5621 56.282 37.2101 56.2239 37.8581Z" stroke="white" stroke-width="2.5" stroke-miterlimit="10"/>
<path d="M56.2256 35.9157H47.7351C47.5856 33.4566 48.9231 31.9861 50.1361 31.1637C50.6262 31.3797 51.1496 31.5043 51.7145 31.5043C52.6284 31.5043 53.4841 31.3631 54.2318 31.0391C54.8216 31.5874 55.2536 32.3517 55.5693 33.1326C55.9348 34.0215 56.1425 34.9603 56.2256 35.9157Z" stroke="white" stroke-width="2.5" stroke-miterlimit="10"/>
<path d="M29.1086 39.0803H14.8193L17.3366 34.428L22.2797 25.2812L26.0929 32.9908C26.0264 33.3646 25.9849 33.7302 25.9849 34.1123C25.9849 34.2951 25.9849 34.4779 26.0098 34.6606C26.2009 36.6047 27.4138 38.2579 29.1003 39.072L29.1086 39.0803Z" stroke="white" stroke-width="2.5" stroke-miterlimit="10"/>
<path d="M29.6326 54.998L26.7498 61.611C26.2929 62.6411 25.1298 63.1645 24.0581 62.8156L21.6904 62.0347C20.6354 61.6941 20.112 60.5144 20.5606 59.5008L22.5461 54.998H29.6326Z" stroke="white" stroke-width="2.5" stroke-miterlimit="10"/>
<path d="M42.4829 62.691L41.1786 62.9901C40.0986 63.2476 39.002 62.6578 38.6032 61.6276L36.0693 54.998H43.189L44.6678 58.2381C45.5069 60.0824 44.4518 62.2257 42.4829 62.691Z" stroke="white" stroke-width="2.5" stroke-miterlimit="10"/>
</g>
<defs>
<clipPath id="clip0_335_540">
<rect width="64.7585" height="63.3379" fill="white" transform="translate(0.338867 0.923828)"/>
</clipPath>
</defs>
</svg>
