<svg width="52" height="61" viewBox="0 0 52 61" fill="none" xmlns="http://www.w3.org/2000/svg">
<g clip-path="url(#clip0_335_246)">
<path d="M48.5047 1.24219H4.59221C3.3062 1.24219 2.26367 2.28181 2.26367 3.56425V27.8412C2.26367 29.1237 3.3062 30.1633 4.59221 30.1633H48.5047C49.7907 30.1633 50.8333 29.1237 50.8333 27.8412V3.56425C50.8333 2.28181 49.7907 1.24219 48.5047 1.24219Z" stroke="white" stroke-width="2.5" stroke-miterlimit="10"/>
<path d="M10.5984 42.4102H2.43352C1.82087 42.4102 1.32422 42.9054 1.32422 43.5164V45.4697C1.32422 46.0806 1.82087 46.5759 2.43352 46.5759H10.5984C11.2111 46.5759 11.7077 46.0806 11.7077 45.4697V43.5164C11.7077 42.9054 11.2111 42.4102 10.5984 42.4102Z" stroke="white" stroke-width="2.5" stroke-miterlimit="10"/>
<path d="M49.4142 42.4102H18.1738C17.5611 42.4102 17.0645 42.9054 17.0645 43.5164V45.4697C17.0645 46.0806 17.5611 46.5759 18.1738 46.5759H49.4142C50.0269 46.5759 50.5235 46.0806 50.5235 45.4697V43.5164C50.5235 42.9054 50.0269 42.4102 49.4142 42.4102Z" stroke="white" stroke-width="2.5" stroke-miterlimit="10"/>
<path d="M49.4142 50.7129H18.1738C17.5611 50.7129 17.0645 51.2082 17.0645 51.8191V53.7724C17.0645 54.3834 17.5611 54.8786 18.1738 54.8786H49.4142C50.0269 54.8786 50.5235 54.3834 50.5235 53.7724V51.8191C50.5235 51.2082 50.0269 50.7129 49.4142 50.7129Z" stroke="white" stroke-width="2.5" stroke-miterlimit="10"/>
<path d="M10.5984 50.7129H2.43352C1.82087 50.7129 1.32422 51.2082 1.32422 51.8191V53.7724C1.32422 54.3834 1.82087 54.8786 2.43352 54.8786H10.5984C11.2111 54.8786 11.7077 54.3834 11.7077 53.7724V51.8191C11.7077 51.2082 11.2111 50.7129 10.5984 50.7129Z" stroke="white" stroke-width="2.5" stroke-miterlimit="10"/>
<path d="M28.3376 39.3701C29.9383 39.3701 31.2358 38.0761 31.2358 36.48C31.2358 34.8838 29.9383 33.5898 28.3376 33.5898C26.737 33.5898 25.4395 34.8838 25.4395 36.48C25.4395 38.0761 26.737 39.3701 28.3376 39.3701Z" stroke="white" stroke-width="2.5" stroke-miterlimit="10"/>
<path d="M42.3379 42.0508V46.1268" stroke="white" stroke-width="2.5" stroke-miterlimit="10"/>
<path d="M37.0918 50.7129V54.3604" stroke="white" stroke-width="2.5" stroke-miterlimit="10"/>
<path d="M28.3359 39.3613V60.0605" stroke="white" stroke-width="2.5" stroke-miterlimit="10"/>
<path d="M39.2296 18.543C41.3822 18.543 43.1272 16.8028 43.1272 14.6562C43.1272 12.5097 41.3822 10.7695 39.2296 10.7695C37.077 10.7695 35.332 12.5097 35.332 14.6562C35.332 16.8028 37.077 18.543 39.2296 18.543Z" stroke="white" stroke-width="2.5" stroke-miterlimit="10"/>
<path d="M7.96875 8.70714C7.96875 8.70714 20.8407 8.57758 22.4397 17.4174C22.4397 17.4174 25.3379 12.4942 31.2242 13.0622" stroke="white" stroke-width="2.5" stroke-miterlimit="10"/>
<path d="M7.96875 13.0605C7.96875 13.0605 18.1724 12.3629 20.311 22.8071" stroke="white" stroke-width="2.5" stroke-miterlimit="10"/>
<path d="M24.25 22.8082C24.25 22.8082 26.6185 16.5596 31.2356 17.1575" stroke="white" stroke-width="2.5" stroke-miterlimit="10"/>
</g>
<defs>
<clipPath id="clip0_335_246">
<rect width="51.5078" height="59.8155" fill="white" transform="translate(0.324219 0.246094)"/>
</clipPath>
</defs>
</svg>
