<svg width="32" height="32" viewBox="0 0 32 32" fill="none" xmlns="http://www.w3.org/2000/svg">
<path d="M16.7155 5.36523C17.4069 5.36912 19.1367 5.38595 20.9752 5.45975L21.6278 5.48823C23.478 5.57498 25.3269 5.72517 26.2448 5.98024C27.4684 6.32464 28.4291 7.32677 28.754 8.59821C29.2719 10.618 29.3367 14.5566 29.3444 15.5109L29.3457 15.7077V15.9329C29.3367 16.8872 29.2719 20.8271 28.754 22.8456C28.4252 24.1209 27.4632 25.1243 26.2448 25.4636C25.3269 25.7186 23.478 25.8688 21.6278 25.9556L20.9752 25.9853C19.1367 26.0578 17.4069 26.076 16.7155 26.0786L16.4112 26.0798H16.0811C14.618 26.0708 8.49906 26.0048 6.55177 25.4636C5.32953 25.1191 4.36753 24.117 4.04255 22.8456C3.52465 20.8258 3.45992 16.8872 3.45215 15.9329V15.5109C3.45992 14.5566 3.52465 10.6167 4.04255 8.59821C4.37142 7.32289 5.33341 6.31946 6.55306 5.98153C8.49906 5.43903 14.6193 5.373 16.0824 5.36523H16.7155ZM13.8088 11.1916V20.2548L21.5773 15.7232L13.8088 11.1916Z" fill="white"/>
</svg>
